{
  "accessors": [
    {
      "bufferView": 1,
      "componentType": 5126,
      "count": 14563,
      "max": [
        4.9995536804199219,
        6.2529659271240234,
        1.9079438447952271
      ],
      "min": [
        -4.7753114700317383,
        -5.0811409950256348,
        0
      ],
      "type": "VEC3"
    },
    {
      "bufferView": 1,
      "byteOffset": 174756,
      "componentType": 5126,
      "count": 14563,
      "max": [
        0.99999797344207764,
        0.99999350309371948,
        1
      ],
      "min": [
        -0.9999968409538269,
        -1,
        -1
      ],
      "type": "VEC3"
    },
    {
      "bufferView": 0,
      "componentType": 5125,
      "count": 76902,
      "max": [
        14562
      ],
      "min": [
        312
      ],
      "type": "SCALAR"
    }
  ],
  "asset": {
    "extras": {
      "author": "LOUIS (https://sketchfab.com/louis)",
      "license": "CC-BY-4.0 (http://creativecommons.org/licenses/by/4.0/)",
      "source": "https://sketchfab.com/3d-models/apple-logo-8b13cb3155da41108b1a13e3bc35442d",
      "title": "APPLE LOGO"
    },
    "generator": "Sketchfab-5.84.2",
    "version": "2.0"
  },
  "bufferViews": [
    {
      "buffer": 0,
      "byteLength": 307608,
      "byteOffset": 0,
      "name": "floatBufferViews",
      "target": 34963
    },
    {
      "buffer": 0,
      "byteLength": 349512,
      "byteOffset": 307608,
      "byteStride": 12,
      "name": "floatBufferViews",
      "target": 34962
    }
  ],
  "buffers": [
    {
      "byteLength": 657120,
      "uri": "scene.bin"
    }
  ],
  "materials": [
    {
      "doubleSided": true,
      "emissiveFactor": [
        0,
        0,
        0
      ],
      "name": "Scene_-_Root",
      "pbrMetallicRoughness": {
        "baseColorFactor": [
          1,
          1,
          1,
          1
        ],
        "metallicFactor": 0,
        "roughnessFactor": 0.20000000000000001
      }
    }
  ],
  "meshes": [
    {
      "primitives": [
        {
          "attributes": {
            "NORMAL": 1,
            "POSITION": 0
          },
          "indices": 2,
          "material": 0,
          "mode": 4
        }
      ]
    }
  ],
  "nodes": [
    {
      "children": [
        1
      ],
      "name": "RootNode (gltf orientation matrix)",
      "rotation": [
        -0.70710678118654746,
        -0,
        -0,
        0.70710678118654757
      ]
    },
    {
      "children": [
        2
      ],
      "matrix": [
        1,
        0,
        0,
        0,
        0,
        6.1232342629258393e-17,
        1,
        0,
        0,
        -1,
        6.1232342629258393e-17,
        0,
        0,
        0,
        0,
        1
      ],
      "name": "RootNode (model correction matrix)"
    },
    {
      "children": [
        3
      ],
      "name": "3d_apple_logo_stl_neu.stl.cleaner"
    },
    {
      "mesh": 0,
      "name": ""
    }
  ],
  "scene": 0,
  "scenes": [
    {
      "name": "OSG_Scene",
      "nodes": [
        0
      ]
    }
  ]
}

