{
  "accessors": [
    {
      "bufferView": 1,
      "componentType": 5126,
      "count": 9122,
      "max": [
        11.548000335693359,
        -0.014000000432133675,
        7.1729998588562012
      ],
      "min": [
        6.3480000495910645,
        -6.8299999237060547,
        1.6000000238418579
      ],
      "type": "VEC3"
    },
    {
      "bufferView": 1,
      "byteOffset": 109464,
      "componentType": 5126,
      "count": 9122,
      "max": [
        1,
        1,
        1
      ],
      "min": [
        -1,
        -1,
        -0.99999988079071045
      ],
      "type": "VEC3"
    },
    {
      "bufferView": 0,
      "componentType": 5125,
      "count": 38526,
      "max": [
        9121
      ],
      "min": [
        0
      ],
      "type": "SCALAR"
    },
    {
      "bufferView": 1,
      "byteOffset": 218928,
      "componentType": 5126,
      "count": 1431,
      "max": [
        -1.6089999675750732,
        -0,
        4.3429999351501465
      ],
      "min": [
        -10.833000183105469,
        -4,
        3.755000114440918
      ],
      "type": "VEC3"
    },
    {
      "bufferView": 1,
      "byteOffset": 236100,
      "componentType": 5126,
      "count": 1431,
      "max": [
        1,
        1,
        1
      ],
      "min": [
        -1,
        -1,
        -1
      ],
      "type": "VEC3"
    },
    {
      "bufferView": 0,
      "byteOffset": 154104,
      "componentType": 5125,
      "count": 5751,
      "max": [
        1430
      ],
      "min": [
        0
      ],
      "type": "SCALAR"
    },
    {
      "bufferView": 1,
      "byteOffset": 253272,
      "componentType": 5126,
      "count": 9115,
      "max": [
        5.7480001449584961,
        -0.014000000432133675,
        7.1729998588562012
      ],
      "min": [
        0.54799997806549072,
        -6.8299999237060547,
        1.6000000238418579
      ],
      "type": "VEC3"
    },
    {
      "bufferView": 1,
      "byteOffset": 362652,
      "componentType": 5126,
      "count": 9115,
      "max": [
        1,
        1,
        1
      ],
      "min": [
        -1,
        -1,
        -0.99998664855957031
      ],
      "type": "VEC3"
    },
    {
      "bufferView": 0,
      "byteOffset": 177108,
      "componentType": 5125,
      "count": 38490,
      "max": [
        9114
      ],
      "min": [
        0
      ],
      "type": "SCALAR"
    },
    {
      "bufferView": 1,
      "byteOffset": 472032,
      "componentType": 5126,
      "count": 10469,
      "max": [
        -0.70399999618530273,
        -0,
        4.3730001449584961
      ],
      "min": [
        -11.100000381469727,
        -5.3000001907348633,
        2.2730000019073486
      ],
      "type": "VEC3"
    },
    {
      "bufferView": 1,
      "byteOffset": 597660,
      "componentType": 5126,
      "count": 10469,
      "max": [
        1,
        1,
        0.99999773502349854
      ],
      "min": [
        -1,
        -1,
        -1
      ],
      "type": "VEC3"
    },
    {
      "bufferView": 0,
      "byteOffset": 331068,
      "componentType": 5125,
      "count": 45942,
      "max": [
        10468
      ],
      "min": [
        0
      ],
      "type": "SCALAR"
    }
  ],
  "asset": {
    "extras": {
      "author": "paullin92 (https://sketchfab.com/paullin92)",
      "license": "CC-BY-4.0 (http://creativecommons.org/licenses/by/4.0/)",
      "source": "https://sketchfab.com/3d-models/airpods-1035d1b5afc647fcba1e84d616b52af5",
      "title": "Airpods"
    },
    "generator": "Sketchfab-8.33.0",
    "version": "2.0"
  },
  "bufferViews": [
    {
      "buffer": 0,
      "byteLength": 514836,
      "byteOffset": 0,
      "name": "floatBufferViews",
      "target": 34963
    },
    {
      "buffer": 0,
      "byteLength": 723288,
      "byteOffset": 514836,
      "byteStride": 12,
      "name": "floatBufferViews",
      "target": 34962
    }
  ],
  "buffers": [
    {
      "byteLength": 1238124,
      "uri": "scene.bin"
    }
  ],
  "extensionsRequired": [
    "KHR_materials_pbrSpecularGlossiness"
  ],
  "extensionsUsed": [
    "KHR_materials_pbrSpecularGlossiness"
  ],
  "materials": [
    {
      "alphaMode": "BLEND",
      "doubleSided": true,
      "emissiveFactor": [
        0,
        0,
        0
      ],
      "extensions": {
        "KHR_materials_pbrSpecularGlossiness": {
          "diffuseFactor": [
            0.23137300000000002,
            0.33333299999999955,
            0.63921599999999923,
            0.23921600000000001
          ],
          "glossinessFactor": 0.5774242516719934,
          "specularFactor": [
            0.2986363728841146,
            0.2986363728841146,
            0.2986363728841146
          ]
        }
      },
      "name": "color_-1036298845"
    },
    {
      "doubleSided": true,
      "emissiveFactor": [
        0,
        0,
        0
      ],
      "extensions": {
        "KHR_materials_pbrSpecularGlossiness": {
          "diffuseFactor": [
            0.65490199999999998,
            0.67843100000000001,
            0.69411800000000001,
            1
          ],
          "glossinessFactor": 0,
          "specularFactor": [
            0,
            0,
            0
          ]
        }
      },
      "name": "color_10988977"
    },
    {
      "doubleSided": true,
      "emissiveFactor": [
        0,
        0,
        0
      ],
      "extensions": {
        "KHR_materials_pbrSpecularGlossiness": {
          "diffuseFactor": [
            0.69019600000000003,
            0.90980399999999995,
            0.93725499999999995,
            1
          ],
          "glossinessFactor": 0,
          "specularFactor": [
            0,
            0,
            0
          ]
        }
      },
      "name": "color_11593967"
    },
    {
      "doubleSided": true,
      "emissiveFactor": [
        0,
        0,
        0
      ],
      "extensions": {
        "KHR_materials_pbrSpecularGlossiness": {
          "diffuseFactor": [
            0.98039200000000004,
            0.98039200000000004,
            0.98039200000000004,
            1
          ],
          "glossinessFactor": 0,
          "specularFactor": [
            0,
            0,
            0
          ]
        }
      },
      "name": "color_16448250"
    }
  ],
  "meshes": [
    {
      "primitives": [
        {
          "attributes": {
            "NORMAL": 1,
            "POSITION": 0
          },
          "indices": 2,
          "material": 0,
          "mode": 4
        }
      ]
    },
    {
      "primitives": [
        {
          "attributes": {
            "NORMAL": 4,
            "POSITION": 3
          },
          "indices": 5,
          "material": 1,
          "mode": 4
        }
      ]
    },
    {
      "primitives": [
        {
          "attributes": {
            "NORMAL": 7,
            "POSITION": 6
          },
          "indices": 8,
          "material": 2,
          "mode": 4
        }
      ]
    },
    {
      "primitives": [
        {
          "attributes": {
            "NORMAL": 10,
            "POSITION": 9
          },
          "indices": 11,
          "material": 3,
          "mode": 4
        }
      ]
    }
  ],
  "nodes": [
    {
      "children": [
        1
      ],
      "name": "RootNode (gltf orientation matrix)",
      "rotation": [
        -0.70710678118654746,
        -0,
        -0,
        0.70710678118654757
      ]
    },
    {
      "children": [
        2
      ],
      "matrix": [
        1,
        0,
        0,
        0,
        0,
        2.2204460492503131e-16,
        -1,
        0,
        0,
        1,
        2.2204460492503131e-16,
        0,
        0,
        -7.8015055656433105,
        0.97150593996047974,
        1
      ],
      "name": "RootNode (model correction matrix)"
    },
    {
      "children": [
        3,
        4,
        5,
        6
      ],
      "name": "tinker.obj.cleaner.materialmerger.gles"
    },
    {
      "mesh": 0,
      "name": ""
    },
    {
      "mesh": 1,
      "name": ""
    },
    {
      "mesh": 2,
      "name": ""
    },
    {
      "mesh": 3,
      "name": ""
    }
  ],
  "scene": 0,
  "scenes": [
    {
      "name": "OSG_Scene",
      "nodes": [
        0
      ]
    }
  ]
}

